<?xml version="1.0" standalone="no"?>
<!DOCTYPE svg PUBLIC "-//W3C//DTD SVG 20010904//EN"
 "http://www.w3.org/TR/2001/REC-SVG-20010904/DTD/svg10.dtd">
<svg version="1.0" xmlns="http://www.w3.org/2000/svg"
 width="191.000000pt" height="254.000000pt" viewBox="0 0 191.000000 254.000000"
 preserveAspectRatio="xMidYMid meet">

<g transform="translate(0.000000,254.000000) scale(0.100000,-0.100000)"
fill="#000000" stroke="none">
<path d="M967 1393 c-4 -3 -7 -15 -7 -25 0 -23 -19 -23 -102 -2 -72 19 -160
14 -209 -12 -17 -9 -50 -33 -73 -54 -23 -21 -48 -38 -56 -38 -60 4 -68 -2 -95
-57 -15 -30 -31 -55 -36 -55 -13 0 -22 45 -17 90 4 49 -11 52 -53 11 -34 -35
-38 -77 -10 -108 23 -24 18 -33 -18 -33 -15 0 -37 -7 -50 -16 -21 -15 -23 -22
-18 -71 l6 -54 -43 -31 c-79 -55 -99 -139 -83 -344 7 -80 5 -97 -13 -140 -36
-83 -25 -155 25 -174 14 -5 43 -4 79 4 56 13 56 13 56 -10 0 -12 -4 -34 -9
-47 -8 -20 -6 -27 5 -31 32 -12 60 -5 91 24 36 34 43 36 43 15 0 -21 90 -111
120 -120 14 -5 48 -7 77 -6 42 2 52 -1 57 -16 3 -10 22 -35 42 -56 l36 -37
437 0 437 0 59 50 c77 65 119 118 161 205 32 65 63 181 64 233 0 12 5 22 10
22 6 0 10 18 10 40 0 22 -3 40 -8 40 -4 0 -17 23 -30 50 -21 46 -22 52 -8 72
9 12 16 34 16 49 0 30 -32 75 -59 84 -13 4 -24 23 -33 57 -13 53 -77 134 -140
179 -36 26 -138 47 -266 56 -54 3 -95 11 -97 17 -2 6 -6 23 -9 38 -4 18 -21
37 -46 53 -45 29 -69 33 -50 10 7 -8 18 -15 24 -15 23 0 56 -46 56 -76 -1 -59
-65 -104 -150 -104 -27 0 -50 -4 -50 -10 0 -18 117 -11 154 9 l34 20 49 -42
c27 -23 64 -54 83 -68 l34 -25 -45 -22 c-25 -12 -58 -35 -74 -51 -15 -17 -41
-33 -56 -36 -16 -4 -31 -11 -34 -16 -4 -5 -11 -9 -17 -9 -10 0 -9 7 7 85 5 25
3 23 -13 -11 -27 -57 -86 -97 -81 -56 4 42 -5 53 -10 12 -9 -59 1 -69 40 -41
46 34 47 17 1 -33 -43 -47 -58 -82 -49 -116 3 -11 1 -20 -3 -20 -11 0 -146
-191 -154 -218 -8 -25 -47 -57 -146 -121 -120 -78 -201 -92 -250 -42 -41 40
-49 80 -22 101 23 19 19 30 -8 30 -9 0 -25 9 -35 20 -17 19 -20 44 -11 100 2
14 4 35 5 48 1 15 7 22 20 22 13 0 21 -8 23 -22 4 -31 22 -29 26 2 8 69 50
110 114 110 31 1 32 1 14 15 -11 8 -18 16 -15 18 2 2 22 14 44 27 22 13 55 38
72 57 38 38 53 42 53 13 0 -28 17 -25 24 3 15 63 82 103 139 84 15 -5 31 -6
35 -3 11 12 -21 26 -61 26 -35 0 -37 2 -27 20 9 17 21 20 70 20 52 0 61 -3 79
-27 13 -19 20 -23 21 -12 0 8 -5 20 -10 25 -7 7 -3 17 10 32 11 11 20 24 20
28 0 4 -33 38 -72 76 -69 67 -124 105 -135 95 -2 -3 6 -11 19 -18 12 -6 55
-45 94 -85 83 -87 81 -98 -23 -100 -60 -1 -66 -3 -97 -38 -19 -20 -40 -36 -47
-36 -8 0 -20 -9 -27 -20 -7 -11 -17 -20 -22 -20 -6 0 -23 -14 -38 -30 -21 -24
-40 -33 -82 -39 -30 -5 -58 -7 -62 -4 -5 2 -17 6 -29 8 -34 7 -4 -22 32 -30
16 -4 31 -10 34 -15 7 -12 -134 -90 -162 -90 -34 0 -28 13 29 64 l53 46 -30 0
c-44 0 -94 -34 -102 -70 -10 -52 -58 -30 -97 45 -15 28 -16 28 -16 7 0 -34 35
-79 76 -98 33 -16 34 -17 34 -80 0 -34 -4 -65 -9 -68 -31 -20 -139 86 -148
146 -2 12 -7 26 -12 31 -5 5 -5 -10 -1 -32 10 -58 54 -118 111 -153 46 -29 54
-39 50 -62 -1 -5 5 -16 14 -26 8 -9 12 -19 9 -22 -8 -9 -60 8 -100 31 -19 11
-34 17 -34 12 0 -14 45 -49 73 -56 15 -4 30 -11 33 -17 3 -5 14 -6 25 -3 13 5
19 2 19 -10 0 -32 34 -87 64 -106 17 -10 49 -19 71 -19 43 0 90 -25 79 -41 -3
-6 -18 -15 -32 -21 -48 -19 -93 -17 -133 4 -44 23 -107 91 -115 125 -8 31 -20
29 -38 -5 -12 -23 -39 -43 -76 -58 -3 -1 -5 39 -5 90 0 78 -3 96 -22 122 -12
17 -32 55 -44 85 -43 107 -26 302 34 392 26 38 29 30 10 -23 -15 -42 -20 -156
-8 -168 9 -9 15 3 30 64 24 93 106 203 205 275 45 33 126 69 136 61 4 -4 4 -2
0 5 -4 8 8 16 36 23 64 16 93 32 45 25 -21 -4 -45 -9 -53 -12 -9 -3 -14 2 -14
15 0 17 8 21 55 24 30 1 69 -1 87 -5 18 -5 51 -10 73 -12 l40 -4 -30 17 c-23
13 -56 17 -140 17 -109 0 -111 1 -134 28 -28 34 -22 44 63 99 52 33 67 38 119
38 32 0 83 -7 112 -16 48 -13 53 -18 52 -41 -2 -21 9 -35 53 -69 36 -27 63
-41 79 -40 25 3 54 33 45 47 -9 15 -21 10 -27 -11 -3 -11 -13 -20 -24 -19 -26
1 -107 62 -112 84 -3 15 2 17 29 11 28 -5 31 -4 25 12 -16 38 -17 53 -5 67 12
15 0 22 -13 8z m-612 -157 c-4 -18 -2 -50 3 -70 12 -41 2 -46 -28 -16 -26 26
-25 60 1 94 27 34 31 33 24 -8z m201 -27 c48 -47 48 -72 0 -89 -58 -22 -106
-23 -126 -5 -18 16 -18 20 -4 54 39 94 66 102 130 40z m844 -95 c47 -4 87 -8
90 -9 3 -1 19 -5 35 -9 51 -13 109 -43 139 -70 38 -36 29 -41 -25 -13 -39 21
-79 34 -159 54 -14 3 -70 8 -125 10 -55 3 -104 9 -109 13 -16 16 15 41 43 36
14 -3 64 -8 111 -12z m-985 -15 c9 -26 0 -35 -20 -19 -16 14 -21 0 -5 -16 12
-12 -45 -111 -73 -128 -37 -23 -105 92 -79 132 10 15 71 31 120 32 17 0 32 5
32 10 0 18 19 10 25 -11z m75 -17 c0 -5 -25 -30 -55 -56 -30 -26 -55 -44 -55
-41 0 13 24 51 48 78 24 25 62 37 62 19z m967 -59 c68 -9 59 -20 -19 -25 -56
-5 -78 -2 -97 11 l-25 16 34 6 c19 4 42 4 50 2 8 -2 34 -7 57 -10z m-1237
-113 c-12 -16 -23 -38 -25 -47 -2 -10 -11 -40 -19 -68 -18 -58 -21 -202 -5
-260 6 -22 24 -67 39 -100 45 -97 45 -101 9 -119 -39 -20 -93 -21 -108 -3 -22
27 -23 75 -4 134 18 52 19 70 11 168 -5 61 -7 132 -4 159 6 58 47 130 84 150
40 22 46 19 22 -14z m1283 19 c12 -6 36 -27 53 -46 29 -33 35 -36 100 -39 55
-3 144 -24 162 -40 2 -1 7 -18 12 -37 13 -58 -1 -63 -59 -23 -29 19 -76 42
-104 50 -154 44 -185 45 -276 16 -86 -27 -241 -104 -274 -135 -16 -15 -31 -25
-34 -21 -25 25 78 148 135 161 17 3 36 13 43 21 19 24 89 69 134 87 48 19 79
21 108 6z m-1195 -26 c-2 -5 -13 -28 -25 -53 -12 -25 -24 -54 -28 -64 -12 -41
-16 -4 -5 51 15 71 16 73 41 73 12 0 19 -3 17 -7z m1303 -122 c120 -34 155
-56 214 -136 28 -37 30 -45 28 -122 -1 -45 -7 -101 -14 -125 -7 -24 -13 -47
-15 -53 -4 -22 -58 -131 -78 -160 -22 -32 -88 -97 -121 -120 -45 -31 -190 -45
-484 -46 -260 -1 -327 4 -403 27 -22 6 -24 34 -4 34 21 0 30 19 16 35 -16 19
54 73 73 56 17 -14 27 -4 27 24 0 23 32 112 70 199 42 94 157 246 186 246 6 0
14 6 17 14 6 15 165 99 242 126 66 24 164 25 246 1z m-1141 -86 c-35 -36 -45
-39 -34 -11 5 14 47 44 63 46 3 0 -10 -16 -29 -35z m3 -92 c-33 -17 -51 -13
-38 6 3 6 21 11 38 10 l32 0 -32 -16z m201 -499 c3 -8 2 -12 -4 -9 -6 3 -10
10 -10 16 0 14 7 11 14 -7z"/>
<path d="M1000 1392 c0 -5 12 -15 28 -22 15 -8 39 -23 55 -33 15 -10 27 -15
27 -10 0 8 -17 21 -76 54 -19 10 -34 15 -34 11z"/>
<path d="M1030 1304 c18 -21 41 -32 79 -39 32 -5 43 8 15 19 -8 3 -12 10 -9
16 8 13 -1 13 -25 -2 -15 -10 -22 -9 -38 5 -23 21 -39 22 -22 1z"/>
<path d="M662 1089 c21 -5 66 -23 100 -41 83 -44 85 -44 68 -23 -22 27 -134
75 -172 74 l-33 -1 37 -9z"/>
<path d="M759 937 c-22 -15 -35 -32 -37 -50 -4 -33 -1 -33 46 -4 20 12 50 29
66 37 45 23 44 40 -2 40 -24 0 -52 -9 -73 -23z m46 -9 c-11 -6 -30 -20 -42
-31 -22 -20 -31 -14 -15 9 10 15 44 33 62 33 10 0 9 -3 -5 -11z"/>
<path d="M860 828 c-43 -47 -11 -139 56 -157 42 -12 66 -3 90 34 13 20 14 30
4 59 -26 79 -105 112 -150 64z m113 -31 c33 -38 35 -80 5 -101 -32 -23 -53
-20 -88 12 -40 35 -44 86 -10 114 29 23 57 16 93 -25z"/>
<path d="M555 605 c-28 -27 -32 -57 -12 -74 11 -8 13 -5 9 18 -3 23 2 33 22
46 22 15 31 16 57 5 55 -23 77 -97 37 -124 -31 -22 -46 -20 -87 11 -25 19 -31
21 -21 8 25 -34 44 -44 76 -45 71 0 89 81 33 145 -38 43 -78 47 -114 10z"/>
<path d="M880 595 c-7 -8 -22 -15 -34 -15 -13 -1 -29 -14 -43 -35 -11 -18 -16
-32 -9 -29 7 3 21 -4 31 -16 26 -29 89 -28 109 2 21 30 20 55 -3 75 -11 9 -18
20 -15 25 9 15 -23 8 -36 -7z m30 -20 c0 -8 5 -15 10 -15 16 0 12 -37 -6 -54
-19 -19 -44 -20 -68 -3 -24 18 -15 47 21 69 36 21 43 21 43 3z"/>
</g>
</svg>
